<?xml version="1.0" encoding="UTF-8"?>
<svg width="221px" height="490px" viewBox="0 0 221 490" version="1.1" xmlns="http://www.w3.org/2000/svg" xmlns:xlink="http://www.w3.org/1999/xlink">
    <title>balon3</title>
    <g id="Page-1" stroke="none" stroke-width="1" fill="none" fill-rule="evenodd">
        <g id="balon3">
            <path d="M106.91,268.704998 C102.97,281.494998 108.91,296.614998 120.44,303.344998 C125.28,306.164998 130.85,307.584998 135.54,310.644998 C145.73,317.284998 149.75,329.994998 153.06,341.694998 C156.86,355.144998 160.67,369.364998 157.19,382.894998 C154.97,391.524998 149.92,399.154998 147.05,407.594998 C144.649583,414.664332 143.813638,422.170772 144.6,429.594998 C145.02,433.534998 146,437.594998 148.7,440.534998 C152.6,444.734998 158.88,445.364998 164.52,446.374998 C188.707512,450.949176 209.235246,466.843294 219.72,489.114998" id="Path" stroke="#535461" stroke-width="2"></path>
            <polygon id="Path" fill="#F55F44" fill-rule="nonzero" points="123.76 277.304998 97.28 277.304998 101.92 261.424998 117.8 261.424998"></polygon>
            <path d="M219.72,109.864998 C219.72,170.544998 170.53,259.434998 109.86,259.434998 C49.19,259.434998 -2.84217094e-14,170.534998 -2.84217094e-14,109.864998 C-2.84217094e-14,49.1882345 49.1882369,-2.84217094e-14 109.865,-2.84217094e-14 C170.541763,-2.84217094e-14 219.73,49.1882345 219.73,109.864998 L219.72,109.864998 Z" id="Path" fill="#F55F44" fill-rule="nonzero"></path>
            <polygon id="Path" fill="#535461" fill-rule="nonzero" points="117.8 262.084998 101.92 262.084998 92.65 256.794998 127.07 256.794998"></polygon>
            <path d="M70.15,24.4849977 C70.15,24.4849977 23.82,49.6349977 17.2,99.9349977" id="Path" fill="#FFFFFF" fill-rule="nonzero" opacity="0.1"></path>
        </g>
    </g>
</svg>