<?xml version="1.0" encoding="UTF-8"?>
<svg width="220px" height="587px" viewBox="0 0 220 587" version="1.1" xmlns="http://www.w3.org/2000/svg" xmlns:xlink="http://www.w3.org/1999/xlink">
    <title>balon2</title>
    <g id="Page-1" stroke="none" stroke-width="1" fill="none" fill-rule="evenodd">
        <g id="balon2">
            <path d="M112.38,269.685 C102.66,283.235 92.57,297.805 91.74,314.465 C90.47,340.055 110.94,360.985 120.08,384.925 C128.084135,406.232864 127.069614,429.880931 117.27,450.425 C112.81,459.645 106.45,468.805 107.27,479.015 C107.74,485.245 110.86,490.915 113.37,496.645 C125.864591,525.770791 123.721293,559.108915 107.6,586.395" id="Path" stroke="#000000" stroke-width="2"></path>
            <path d="M113.58,269.685 C103.87,283.285 93.78,297.815 92.93,314.465 C91.66,340.055 112.13,360.985 121.27,384.925 C129.274135,406.232864 128.259614,429.880931 118.46,450.425 C114,459.645 107.64,468.805 108.46,479.015 C108.93,485.245 112.05,490.915 114.56,496.645 C127.054591,525.770791 124.911293,559.108915 108.79,586.395" id="Path" stroke="#535461" stroke-width="2"></path>
            <polygon id="Path" fill="#4D8AF0" fill-rule="nonzero" points="123.76 277.305 97.28 277.305 101.92 261.425 117.8 261.425"></polygon>
            <path d="M219.72,109.865 C219.72,170.545 170.53,259.435 109.86,259.435 C49.19,259.435 0,170.535 0,109.865 C0,49.188236 49.188236,2.84217094e-14 109.865,2.84217094e-14 C170.541764,2.84217094e-14 219.73,49.188236 219.73,109.865 L219.72,109.865 Z" id="Path" fill="#6C63FF" fill-rule="nonzero"></path>
            <polygon id="Path" fill="#535461" fill-rule="nonzero" points="117.8 262.085 101.92 262.085 92.65 256.785 127.07 256.785"></polygon>
            <path d="M70.15,24.485 C70.15,24.485 23.82,49.635 17.2,99.935" id="Path" fill="#FFFFFF" fill-rule="nonzero" opacity="0.1"></path>
        </g>
    </g>
</svg>