<svg width="800" height="400" viewBox="0 0 800 400" xmlns="http://www.w3.org/2000/svg"><mask id="satori_om-id"><rect x="0" y="0" width="800" height="400" fill="#fff"/></mask><rect x="0" y="0" width="800" height="400" fill="#fff"/><clipPath id="satori_cp-id-0"><rect x="370" y="131" width="60" height="60"/></clipPath><mask id="satori_om-id-0"><rect x="370" y="131" width="60" height="60" fill="#fff"/></mask><image x="370" y="131" width="60" height="60" href="data:image/svg+xml;utf8,%3Csvg  xmlns=%22http://www.w3.org/2000/svg%22 fill=%22none%22 stroke-width=%221.5%22 stroke=%22black%22 width=%22null%22 height=%22null%22 viewBox=%220 0 24 24%22%3E%3Cpath stroke-linecap=%22round%22 stroke-linejoin=%22round%22 d=%22M15.182 15.182a4.5 4.5 0 01-6.364 0M21 12a9 9 0 11-18 0 9 9 0 0118 0zM9.75 9.75c0 .414-.168.75-.375.75S9 10.164 9 9.75 9.168 9 9.375 9s.375.336.375.75zm-.375 0h.008v.015h-.008V9.75zm5.625 0c0 .414-.168.75-.375.75s-.375-.336-.375-.75.168-.75.375-.75.375.336.375.75zm-.375 0h.008v.015h-.008V9.75z%22%3E%3C/path%3E%3C/svg%3E" preserveAspectRatio="none" clip-path="url(#satori_cp-id-0)" mask="url(#satori_om-id-0)"/><mask id="satori_om-id-0-0"><rect x="370" y="131" width="0" height="60" fill="#fff"/></mask><mask id="satori_om-id-1"><rect x="171" y="231" width="458" height="38" fill="#fff"/></mask><path fill="black" d="M183.0 261.0L173.0 261.0L173.0 237.7L182.3 237.7Q184.9 237.7 186.6 238.4Q188.3 239.2 189.2 240.5Q190.1 241.9 190.1 243.6L190.1 243.6Q190.1 245.0 189.5 246.0Q189.0 247.1 188.0 247.7Q187.1 248.4 185.9 248.6L185.9 248.6L185.9 248.9Q187.2 248.9 188.4 249.6Q189.5 250.3 190.3 251.6Q191.0 252.8 191.0 254.5L191.0 254.5Q191.0 256.4 190.1 257.8Q189.1 259.3 187.4 260.1Q185.6 261.0 183.0 261.0L183.0 261.0ZM177.9 250.7L177.9 256.9L182.0 256.9Q184.0 256.9 185.0 256.1Q185.9 255.3 185.9 254.0L185.9 254.0Q185.9 253.1 185.4 252.3Q185.0 251.6 184.1 251.2Q183.3 250.7 182.1 250.7L182.1 250.7L177.9 250.7ZM177.9 241.7L177.9 247.4L181.6 247.4Q182.6 247.4 183.4 247.1Q184.2 246.7 184.6 246.0Q185.1 245.4 185.1 244.5L185.1 244.5Q185.1 243.2 184.2 242.4Q183.3 241.7 181.7 241.7L181.7 241.7L177.9 241.7ZM202.0 261.3L202.0 261.3Q199.3 261.3 197.4 260.2Q195.5 259.0 194.4 257.0Q193.4 255.0 193.4 252.3L193.4 252.3Q193.4 249.6 194.4 247.6Q195.5 245.5 197.4 244.4Q199.3 243.3 202.0 243.3L202.0 243.3Q204.6 243.3 206.5 244.4Q208.5 245.5 209.5 247.6Q210.6 249.6 210.6 252.3L210.6 252.3Q210.6 255.0 209.5 257.0Q208.5 259.0 206.5 260.2Q204.6 261.3 202.0 261.3ZM202.0 257.5L202.0 257.5Q203.2 257.5 204 256.9Q204.8 256.2 205.2 255.0Q205.6 253.8 205.6 252.3L205.6 252.3Q205.6 250.7 205.2 249.5Q204.8 248.3 204 247.7Q203.2 247.0 202.0 247.0L202.0 247.0Q200.8 247.0 199.9 247.7Q199.1 248.3 198.7 249.5Q198.3 250.7 198.3 252.3L198.3 252.3Q198.3 253.8 198.7 255.0Q199.1 256.2 199.9 256.9Q200.8 257.5 202.0 257.5ZM213.7 237.7L218.6 237.7L218.6 261.0L213.7 261.0L213.7 237.7ZM230.4 261.3L230.4 261.3Q227.7 261.3 225.7 260.2Q223.8 259.1 222.8 257.1Q221.7 255.1 221.7 252.3L221.7 252.3Q221.7 249.6 222.8 247.6Q223.8 245.5 225.7 244.4Q227.6 243.3 230.2 243.3L230.2 243.3Q231.9 243.3 233.4 243.8Q234.9 244.4 236.0 245.5Q237.1 246.6 237.8 248.2Q238.4 249.9 238.4 252.1L238.4 252.1L238.4 253.5L223.6 253.5L223.6 250.5L233.8 250.5Q233.8 249.4 233.4 248.6Q232.9 247.8 232.1 247.3Q231.3 246.9 230.3 246.9L230.3 246.9Q229.2 246.9 228.3 247.4Q227.5 247.9 227.0 248.7Q226.5 249.6 226.5 250.6L226.5 250.6L226.5 253.5Q226.5 254.8 227.0 255.7Q227.5 256.7 228.4 257.2Q229.2 257.7 230.5 257.7L230.5 257.7Q231.3 257.7 231.9 257.5Q232.6 257.2 233.1 256.8Q233.6 256.3 233.8 255.7L233.8 255.7L238.3 256.0Q237.9 257.6 236.9 258.8Q235.8 260.0 234.2 260.6Q232.5 261.3 230.4 261.3ZM246.4 250.9L246.4 250.9L246.4 261.0L241.5 261.0L241.5 237.7L246.3 237.7L246.3 246.6L246.5 246.6Q247.0 245.0 248.4 244.2Q249.7 243.3 251.7 243.3L251.7 243.3Q253.5 243.3 254.8 244.1Q256.2 244.8 257.0 246.3Q257.7 247.8 257.7 249.8L257.7 249.8L257.7 261.0L252.9 261.0L252.9 250.7Q252.9 249.1 252.1 248.2Q251.2 247.3 249.8 247.3L249.8 247.3Q248.8 247.3 248.0 247.7Q247.3 248.1 246.8 248.9Q246.4 249.7 246.4 250.9Z M275.4 261.2L275.4 261.2Q273.4 261.2 271.8 260.2Q270.2 259.2 269.2 257.2Q268.3 255.2 268.3 252.2L268.3 252.2Q268.3 249.2 269.3 247.3Q270.2 245.3 271.8 244.3Q273.4 243.3 275.4 243.3L275.4 243.3Q276.8 243.3 277.8 243.8Q278.8 244.3 279.4 245.0Q280.0 245.7 280.3 246.4L280.3 246.4L280.5 246.4L280.5 237.7L285.3 237.7L285.3 261.0L280.5 261.0L280.5 258.2L280.3 258.2Q280.0 258.9 279.4 259.6Q278.8 260.3 277.8 260.8Q276.8 261.2 275.4 261.2ZM276.9 257.4L276.9 257.4Q278.1 257.4 278.9 256.7Q279.7 256.1 280.1 254.9Q280.6 253.8 280.6 252.2L280.6 252.2Q280.6 250.7 280.1 249.5Q279.7 248.4 278.9 247.7Q278.1 247.1 276.9 247.1L276.9 247.1Q275.7 247.1 274.9 247.8Q274.1 248.4 273.7 249.6Q273.2 250.7 273.2 252.2L273.2 252.2Q273.2 253.7 273.7 254.9Q274.1 256.1 274.9 256.7Q275.7 257.4 276.9 257.4ZM294.1 261.0L289.3 261.0L289.3 243.5L294.1 243.5L294.1 261.0ZM291.7 241.2L291.7 241.2Q290.6 241.2 289.9 240.5Q289.1 239.8 289.1 238.8L289.1 238.8Q289.1 237.8 289.9 237.1Q290.6 236.3 291.7 236.3L291.7 236.3Q292.8 236.3 293.6 237.1Q294.3 237.8 294.3 238.8L294.3 238.8Q294.3 239.8 293.6 240.5Q292.8 241.2 291.7 241.2ZM305.8 267.9L305.8 267.9Q303.5 267.9 301.8 267.2Q300.1 266.6 299.1 265.5Q298.2 264.4 297.9 263.0L297.9 263.0L302.3 262.4Q302.5 262.9 303.0 263.4Q303.4 263.8 304.2 264.1Q304.9 264.4 306.0 264.4L306.0 264.4Q307.5 264.4 308.6 263.6Q309.6 262.8 309.6 261.1L309.6 261.1L309.6 257.9L309.4 257.9Q309.1 258.6 308.4 259.2Q307.8 259.9 306.8 260.3Q305.8 260.7 304.4 260.7L304.4 260.7Q302.4 260.7 300.8 259.8Q299.2 258.9 298.3 257.0Q297.3 255.1 297.3 252.2L297.3 252.2Q297.3 249.2 298.3 247.2Q299.3 245.2 300.9 244.3Q302.5 243.3 304.4 243.3L304.4 243.3Q305.9 243.3 306.9 243.8Q307.8 244.3 308.4 245.0Q309.1 245.7 309.4 246.4L309.4 246.4L309.6 246.4L309.6 243.5L314.4 243.5L314.4 261.1Q314.4 263.3 313.3 264.8Q312.2 266.3 310.3 267.1Q308.3 267.9 305.8 267.9ZM305.9 257.1L305.9 257.1Q307.1 257.1 307.9 256.5Q308.7 255.9 309.2 254.8Q309.6 253.7 309.6 252.2L309.6 252.2Q309.6 250.6 309.2 249.5Q308.7 248.4 307.9 247.7Q307.1 247.1 305.9 247.1L305.9 247.1Q304.7 247.1 303.9 247.8Q303.1 248.4 302.7 249.5Q302.3 250.7 302.3 252.2L302.3 252.2Q302.3 253.7 302.7 254.8Q303.1 255.9 303.9 256.5Q304.7 257.1 305.9 257.1ZM323.2 261.3L323.2 261.3Q321.5 261.3 320.2 260.7Q318.9 260.1 318.2 259.0Q317.4 257.8 317.4 256.1L317.4 256.1Q317.4 254.6 318.0 253.6Q318.5 252.6 319.4 252.0Q320.3 251.4 321.5 251.1Q322.7 250.8 324.0 250.7L324.0 250.7Q325.5 250.5 326.4 250.4Q327.4 250.3 327.8 250.0Q328.2 249.7 328.2 249.1L328.2 249.1L328.2 249.1Q328.2 248.0 327.5 247.4Q326.9 246.8 325.6 246.8L325.6 246.8Q324.3 246.8 323.5 247.4Q322.8 248.0 322.5 248.8L322.5 248.8L318.0 248.5Q318.4 246.9 319.4 245.7Q320.4 244.5 322.0 243.9Q323.5 243.3 325.6 243.3L325.6 243.3Q327.1 243.3 328.4 243.6Q329.8 244.0 330.8 244.7Q331.8 245.4 332.4 246.5Q333.0 247.6 333.0 249.2L333.0 249.2L333.0 261.0L328.5 261.0L328.5 258.5L328.3 258.5Q327.9 259.3 327.2 260.0Q326.5 260.6 325.5 260.9Q324.5 261.3 323.2 261.3ZM324.6 257.9L324.6 257.9Q325.7 257.9 326.5 257.5Q327.3 257.1 327.8 256.4Q328.2 255.6 328.2 254.7L328.2 254.7L328.2 252.9Q328.0 253.0 327.6 253.1Q327.2 253.2 326.7 253.3Q326.2 253.4 325.8 253.5Q325.3 253.6 324.9 253.6L324.9 253.6Q324.0 253.8 323.4 254.0Q322.7 254.3 322.4 254.8Q322.0 255.2 322.0 255.9L322.0 255.9Q322.0 256.9 322.8 257.4Q323.5 257.9 324.6 257.9ZM341.6 250.9L341.6 250.9L341.6 261.0L336.8 261.0L336.8 243.5L341.4 243.5L341.4 246.6L341.6 246.6Q342.2 245.1 343.6 244.2Q344.9 243.3 346.9 243.3L346.9 243.3Q348.7 243.3 350.0 244.1Q351.4 244.9 352.1 246.3Q352.9 247.8 352.9 249.8L352.9 249.8L352.9 261.0L348.1 261.0L348.1 250.7Q348.1 249.1 347.2 248.2Q346.4 247.3 345.0 247.3L345.0 247.3Q344.0 247.3 343.2 247.7Q342.5 248.1 342.1 248.9Q341.7 249.7 341.6 250.9ZM355.5 243.5L366.0 243.5L366.0 247.1L355.5 247.1L355.5 243.5ZM357.9 256.2L357.9 239.3L362.7 239.3L362.7 255.6Q362.7 256.3 362.9 256.6Q363.1 257.0 363.5 257.1Q363.9 257.3 364.3 257.3L364.3 257.3Q364.7 257.3 365.0 257.2Q365.4 257.2 365.5 257.1L365.5 257.1L366.3 260.7Q365.9 260.8 365.3 261.0Q364.6 261.2 363.7 261.2L363.7 261.2Q361.9 261.3 360.6 260.7Q359.3 260.2 358.6 259.1Q357.9 257.9 357.9 256.2L357.9 256.2ZM374.0 261.0L369.1 261.0L369.1 243.5L374.0 243.5L374.0 261.0ZM371.6 241.2L371.6 241.2Q370.5 241.2 369.7 240.5Q369.0 239.8 369.0 238.8L369.0 238.8Q369.0 237.8 369.7 237.1Q370.5 236.3 371.6 236.3L371.6 236.3Q372.6 236.3 373.4 237.1Q374.2 237.8 374.2 238.8L374.2 238.8Q374.2 239.8 373.4 240.5Q372.6 241.2 371.6 241.2Z M393.1 267.9L393.1 267.9Q390.8 267.9 389.1 267.2Q387.4 266.6 386.4 265.5Q385.4 264.4 385.1 263.0L385.1 263.0L389.6 262.4Q389.8 262.9 390.3 263.4Q390.7 263.8 391.4 264.1Q392.2 264.4 393.2 264.4L393.2 264.4Q394.8 264.4 395.8 263.6Q396.9 262.8 396.9 261.1L396.9 261.1L396.9 257.9L396.7 257.9Q396.4 258.6 395.7 259.2Q395.1 259.9 394.1 260.3Q393.1 260.7 391.7 260.7L391.7 260.7Q389.7 260.7 388.1 259.8Q386.5 258.9 385.6 257.0Q384.6 255.1 384.6 252.2L384.6 252.2Q384.6 249.2 385.6 247.2Q386.5 245.2 388.2 244.3Q389.8 243.3 391.7 243.3L391.7 243.3Q393.1 243.3 394.1 243.8Q395.1 244.3 395.7 245.0Q396.3 245.7 396.7 246.4L396.7 246.4L396.9 246.4L396.9 243.5L401.7 243.5L401.7 261.1Q401.7 263.3 400.6 264.8Q399.5 266.3 397.6 267.1Q395.6 267.9 393.1 267.9ZM393.2 257.1L393.2 257.1Q394.4 257.1 395.2 256.5Q396.0 255.9 396.5 254.8Q396.9 253.7 396.9 252.2L396.9 252.2Q396.9 250.6 396.5 249.5Q396.0 248.4 395.2 247.7Q394.4 247.1 393.2 247.1L393.2 247.1Q392.0 247.1 391.2 247.8Q390.4 248.4 390.0 249.5Q389.6 250.7 389.6 252.2L389.6 252.2Q389.6 253.7 390.0 254.8Q390.4 255.9 391.2 256.5Q392.0 257.1 393.2 257.1ZM410.5 261.3L410.5 261.3Q408.8 261.3 407.5 260.7Q406.2 260.1 405.5 259.0Q404.7 257.8 404.7 256.1L404.7 256.1Q404.7 254.6 405.2 253.6Q405.8 252.6 406.7 252.0Q407.6 251.4 408.8 251.1Q410.0 250.8 411.3 250.7L411.3 250.7Q412.8 250.5 413.7 250.4Q414.6 250.3 415.1 250.0Q415.5 249.7 415.5 249.1L415.5 249.1L415.5 249.1Q415.5 248.0 414.8 247.4Q414.1 246.8 412.9 246.8L412.9 246.8Q411.6 246.8 410.8 247.4Q410.0 248.0 409.8 248.8L409.8 248.8L405.3 248.5Q405.7 246.9 406.7 245.7Q407.7 244.5 409.2 243.9Q410.8 243.3 412.9 243.3L412.9 243.3Q414.4 243.3 415.7 243.6Q417.0 244.0 418.1 244.7Q419.1 245.4 419.7 246.5Q420.3 247.6 420.3 249.2L420.3 249.2L420.3 261.0L415.7 261.0L415.7 258.5L415.6 258.5Q415.2 259.3 414.5 260.0Q413.8 260.6 412.8 260.9Q411.8 261.3 410.5 261.3ZM411.9 257.9L411.9 257.9Q413.0 257.9 413.8 257.5Q414.6 257.1 415.1 256.4Q415.5 255.6 415.5 254.7L415.5 254.7L415.5 252.9Q415.3 253.0 414.9 253.1Q414.5 253.2 414.0 253.3Q413.5 253.4 413.0 253.5Q412.6 253.6 412.2 253.6L412.2 253.6Q411.3 253.8 410.7 254.0Q410.0 254.3 409.7 254.8Q409.3 255.2 409.3 255.9L409.3 255.9Q409.3 256.9 410.1 257.4Q410.8 257.9 411.9 257.9ZM428.9 261.0L424.1 261.0L424.1 243.5L428.7 243.5L428.7 246.6L428.9 246.6Q429.5 245.0 430.7 244.2Q432 243.3 433.8 243.3L433.8 243.3Q435.6 243.3 436.8 244.2Q438.1 245.1 438.5 246.6L438.5 246.6L438.7 246.6Q439.2 245.1 440.6 244.2Q442.0 243.3 444.0 243.3L444.0 243.3Q446.4 243.3 447.9 244.8Q449.5 246.4 449.5 249.2L449.5 249.2L449.5 261.0L444.6 261.0L444.6 250.2Q444.6 248.7 443.9 248.0Q443.1 247.3 441.9 247.3L441.9 247.3Q440.6 247.3 439.9 248.1Q439.1 248.9 439.1 250.3L439.1 250.3L439.1 261.0L434.4 261.0L434.4 250.1Q434.4 248.8 433.7 248.0Q433.0 247.3 431.8 247.3L431.8 247.3Q431.0 247.3 430.3 247.7Q429.7 248.1 429.3 248.8Q428.9 249.5 428.9 250.5L428.9 250.5L428.9 261.0ZM458.1 261.0L453.4 261.0L453.4 237.7L458.2 237.7L458.2 246.4L458.4 246.4Q458.7 245.7 459.3 245.0Q459.9 244.3 460.9 243.8Q461.9 243.3 463.3 243.3L463.3 243.3Q465.2 243.3 466.8 244.3Q468.5 245.3 469.4 247.3Q470.4 249.2 470.4 252.2L470.4 252.2Q470.4 255.2 469.4 257.2Q468.5 259.2 466.9 260.2Q465.3 261.2 463.3 261.2L463.3 261.2Q461.9 261.2 460.9 260.8Q459.9 260.3 459.3 259.6Q458.7 258.9 458.4 258.2L458.4 258.2L458.1 258.2L458.1 261.0ZM458.1 252.2L458.1 252.2Q458.1 253.8 458.5 254.9Q459.0 256.1 459.8 256.7Q460.6 257.4 461.8 257.4L461.8 257.4Q463.0 257.4 463.8 256.7Q464.6 256.1 465.0 254.9Q465.4 253.7 465.4 252.2L465.4 252.2Q465.4 250.7 465.0 249.6Q464.6 248.4 463.8 247.8Q463.0 247.1 461.8 247.1L461.8 247.1Q460.6 247.1 459.8 247.7Q459.0 248.4 458.5 249.5Q458.1 250.7 458.1 252.2ZM478.6 261.3L478.6 261.3Q476.9 261.3 475.6 260.7Q474.3 260.1 473.5 259.0Q472.8 257.8 472.8 256.1L472.8 256.1Q472.8 254.6 473.3 253.6Q473.9 252.6 474.8 252.0Q475.7 251.4 476.9 251.1Q478.0 250.8 479.3 250.7L479.3 250.7Q480.9 250.5 481.8 250.4Q482.7 250.3 483.1 250.0Q483.6 249.7 483.6 249.1L483.6 249.1L483.6 249.1Q483.6 248.0 482.9 247.4Q482.2 246.8 481.0 246.8L481.0 246.8Q479.7 246.8 478.9 247.4Q478.1 248.0 477.9 248.8L477.9 248.8L473.4 248.5Q473.7 246.9 474.7 245.7Q475.7 244.5 477.3 243.9Q478.9 243.3 481 243.3L481 243.3Q482.5 243.3 483.8 243.6Q485.1 244.0 486.2 244.7Q487.2 245.4 487.8 246.5Q488.4 247.6 488.4 249.2L488.4 249.2L488.4 261.0L483.8 261.0L483.8 258.5L483.7 258.5Q483.3 259.3 482.6 260.0Q481.9 260.6 480.9 260.9Q479.9 261.3 478.6 261.3ZM480.0 257.9L480.0 257.9Q481.0 257.9 481.9 257.5Q482.7 257.1 483.1 256.4Q483.6 255.6 483.6 254.7L483.6 254.7L483.6 252.9Q483.4 253.0 483.0 253.1Q482.6 253.2 482.1 253.3Q481.6 253.4 481.1 253.5Q480.6 253.6 480.2 253.6L480.2 253.6Q479.4 253.8 478.8 254.0Q478.1 254.3 477.8 254.8Q477.4 255.2 477.4 255.9L477.4 255.9Q477.4 256.9 478.1 257.4Q478.9 257.9 480.0 257.9ZM497.0 261.0L492.2 261.0L492.2 243.5L496.9 243.5L496.9 246.5L497.0 246.5Q497.5 244.9 498.6 244.1Q499.8 243.2 501.2 243.2L501.2 243.2Q501.6 243.2 502.0 243.3Q502.4 243.3 502.8 243.4L502.8 243.4L502.8 247.7Q502.4 247.6 501.8 247.5Q501.2 247.5 500.7 247.5L500.7 247.5Q499.6 247.5 498.8 247.9Q498.0 248.4 497.5 249.2Q497.0 250.0 497.0 251.1L497.0 251.1L497.0 261.0Z M517.6 261.3L517.6 261.3Q516.0 261.3 514.7 260.7Q513.4 260.1 512.6 259.0Q511.9 257.8 511.9 256.1L511.9 256.1Q511.9 254.6 512.4 253.6Q512.9 252.6 513.8 252.0Q514.8 251.4 515.9 251.1Q517.1 250.8 518.4 250.7L518.4 250.7Q519.9 250.5 520.9 250.4Q521.8 250.3 522.2 250.0Q522.6 249.7 522.6 249.1L522.6 249.1L522.6 249.1Q522.6 248.0 522.0 247.4Q521.3 246.8 520.0 246.8L520.0 246.8Q518.7 246.8 518.0 247.4Q517.2 248.0 516.9 248.8L516.9 248.8L512.5 248.5Q512.8 246.9 513.8 245.7Q514.8 244.5 516.4 243.9Q518.0 243.3 520.1 243.3L520.1 243.3Q521.5 243.3 522.9 243.6Q524.2 244.0 525.2 244.7Q526.3 245.4 526.9 246.5Q527.5 247.6 527.5 249.2L527.5 249.2L527.5 261.0L522.9 261.0L522.9 258.5L522.8 258.5Q522.3 259.3 521.6 260.0Q520.9 260.6 519.9 260.9Q518.9 261.3 517.6 261.3ZM519.0 257.9L519.0 257.9Q520.1 257.9 520.9 257.5Q521.7 257.1 522.2 256.4Q522.7 255.6 522.7 254.7L522.7 254.7L522.7 252.9Q522.4 253.0 522.1 253.1Q521.7 253.2 521.2 253.3Q520.7 253.4 520.2 253.5Q519.7 253.6 519.3 253.6L519.3 253.6Q518.5 253.8 517.8 254.0Q517.2 254.3 516.8 254.8Q516.5 255.2 516.5 255.9L516.5 255.9Q516.5 256.9 517.2 257.4Q517.9 257.9 519.0 257.9ZM536.1 267.5L531.2 267.5L531.2 243.5L536.0 243.5L536.0 246.4L536.2 246.4Q536.5 245.7 537.2 245.0Q537.8 244.3 538.7 243.8Q539.7 243.3 541.2 243.3L541.2 243.3Q543.1 243.3 544.7 244.3Q546.3 245.3 547.3 247.3Q548.3 249.2 548.3 252.2L548.3 252.2Q548.3 255.2 547.3 257.2Q546.4 259.2 544.8 260.2Q543.2 261.2 541.2 261.2L541.2 261.2Q539.8 261.2 538.8 260.8Q537.8 260.3 537.2 259.6Q536.6 258.9 536.2 258.2L536.2 258.2L536.1 258.2L536.1 267.5ZM536.0 252.2L536.0 252.2Q536.0 253.8 536.4 254.9Q536.8 256.1 537.7 256.7Q538.5 257.4 539.6 257.4L539.6 257.4Q540.8 257.4 541.6 256.7Q542.5 256.1 542.9 254.9Q543.3 253.7 543.3 252.2L543.3 252.2Q543.3 250.7 542.9 249.6Q542.5 248.4 541.7 247.8Q540.8 247.1 539.6 247.1L539.6 247.1Q538.5 247.1 537.7 247.7Q536.8 248.4 536.4 249.5Q536.0 250.7 536.0 252.2ZM556.5 261.3L556.5 261.3Q554.8 261.3 553.5 260.7Q552.2 260.1 551.4 259.0Q550.7 257.8 550.7 256.1L550.7 256.1Q550.7 254.6 551.2 253.6Q551.7 252.6 552.6 252.0Q553.6 251.4 554.7 251.1Q555.9 250.8 557.2 250.7L557.2 250.7Q558.7 250.5 559.7 250.4Q560.6 250.3 561.0 250.0Q561.4 249.7 561.4 249.1L561.4 249.1L561.4 249.1Q561.4 248.0 560.8 247.4Q560.1 246.8 558.9 246.8L558.9 246.8Q557.5 246.8 556.8 247.4Q556.0 248.0 555.8 248.8L555.8 248.8L551.3 248.5Q551.6 246.9 552.6 245.7Q553.6 244.5 555.2 243.9Q556.8 243.3 558.9 243.3L558.9 243.3Q560.3 243.3 561.7 243.6Q563.0 244.0 564.0 244.7Q565.1 245.4 565.7 246.5Q566.3 247.6 566.3 249.2L566.3 249.2L566.3 261.0L561.7 261.0L561.7 258.5L561.6 258.5Q561.1 259.3 560.4 260.0Q559.7 260.6 558.7 260.9Q557.8 261.3 556.5 261.3ZM557.8 257.9L557.8 257.9Q558.9 257.9 559.7 257.5Q560.5 257.1 561.0 256.4Q561.5 255.6 561.5 254.7L561.5 254.7L561.5 252.9Q561.3 253.0 560.9 253.1Q560.5 253.2 560.0 253.3Q559.5 253.4 559.0 253.5Q558.5 253.6 558.1 253.6L558.1 253.6Q557.3 253.8 556.6 254.0Q556.0 254.3 555.6 254.8Q555.3 255.2 555.3 255.9L555.3 255.9Q555.3 256.9 556.0 257.4Q556.7 257.9 557.8 257.9ZM574.9 267.5L570.0 267.5L570.0 243.5L574.8 243.5L574.8 246.4L575.0 246.4Q575.4 245.7 576.0 245.0Q576.6 244.3 577.6 243.8Q578.5 243.3 580.0 243.3L580.0 243.3Q581.9 243.3 583.5 244.3Q585.1 245.3 586.1 247.3Q587.1 249.2 587.1 252.2L587.1 252.2Q587.1 255.2 586.1 257.2Q585.2 259.2 583.6 260.2Q582.0 261.2 580.0 261.2L580.0 261.2Q578.6 261.2 577.6 260.8Q576.6 260.3 576.0 259.6Q575.4 258.9 575.0 258.2L575.0 258.2L574.9 258.2L574.9 267.5ZM574.8 252.2L574.8 252.2Q574.8 253.8 575.2 254.9Q575.6 256.1 576.5 256.7Q577.3 257.4 578.5 257.4L578.5 257.4Q579.6 257.4 580.5 256.7Q581.3 256.1 581.7 254.9Q582.1 253.7 582.1 252.2L582.1 252.2Q582.1 250.7 581.7 249.6Q581.3 248.4 580.5 247.8Q579.6 247.1 578.5 247.1L578.5 247.1Q577.3 247.1 576.5 247.7Q575.6 248.4 575.2 249.5Q574.8 250.7 574.8 252.2ZM601.5 253.5L601.5 253.5L601.5 243.5L606.3 243.5L606.3 261.0L601.7 261.0L601.7 257.8L601.5 257.8Q600.9 259.3 599.5 260.2Q598.2 261.2 596.2 261.2L596.2 261.2Q594.4 261.2 593.1 260.4Q591.8 259.6 591.0 258.1Q590.3 256.7 590.3 254.6L590.3 254.6L590.3 243.5L595.1 243.5L595.1 253.7Q595.1 255.3 596.0 256.2Q596.8 257.1 598.1 257.1L598.1 257.1Q599.0 257.1 599.8 256.7Q600.5 256.3 601.0 255.5Q601.5 254.7 601.5 253.5ZM615.0 250.9L615.0 250.9L615.0 261.0L610.2 261.0L610.2 243.5L614.8 243.5L614.8 246.6L615.0 246.6Q615.6 245.1 616.9 244.2Q618.3 243.3 620.3 243.3L620.3 243.3Q622.1 243.3 623.4 244.1Q624.8 244.9 625.5 246.3Q626.3 247.8 626.3 249.8L626.3 249.8L626.3 261.0L621.4 261.0L621.4 250.7Q621.4 249.1 620.6 248.2Q619.8 247.3 618.3 247.3L618.3 247.3Q617.4 247.3 616.6 247.7Q615.9 248.1 615.4 248.9Q615.0 249.7 615.0 250.9Z "/></svg>